<svg width="987" height="512" viewBox="0 0 987 512" fill="none" xmlns="http://www.w3.org/2000/svg">
<rect width="987" height="512" fill="white"/>
<path d="M197 74L260 18V363L197 429V74Z" fill="#A559E1"/>
<path d="M61 132.226L124 75V427.555L61 495V132.226Z" fill="#A559E1"/>
<path d="M334.37 255.26C334.37 242.1 337.002 230.381 342.266 220.104C347.656 209.827 355.301 201.868 365.202 196.228C375.104 190.463 386.76 187.58 400.17 187.58C411.701 187.58 421.978 189.773 431.002 194.16C440.152 198.421 447.546 204.5 453.186 212.396C458.952 220.292 462.774 229.504 464.654 240.032H420.662C418.657 235.645 415.774 232.261 412.014 229.88C408.38 227.373 404.181 226.12 399.418 226.12C392.4 226.12 386.822 228.752 382.686 234.016C378.676 239.28 376.67 246.361 376.67 255.26C376.67 264.159 378.676 271.24 382.686 276.504C386.822 281.768 392.4 284.4 399.418 284.4C404.181 284.4 408.38 283.209 412.014 280.828C415.774 278.321 418.657 274.875 420.662 270.488H464.654C462.774 281.016 458.952 290.228 453.186 298.124C447.546 306.02 440.152 312.161 431.002 316.548C421.978 320.809 411.701 322.94 400.17 322.94C386.76 322.94 375.104 320.12 365.202 314.48C355.301 308.715 347.656 300.693 342.266 290.416C337.002 280.139 334.37 268.42 334.37 255.26ZM521.417 182.88V322H479.681V182.88H521.417ZM561.323 207.508C554.054 207.508 548.226 205.565 543.839 201.68C539.453 197.795 537.259 192.907 537.259 187.016C537.259 181 539.453 176.049 543.839 172.164C548.226 168.153 554.054 166.148 561.323 166.148C568.467 166.148 574.233 168.153 578.619 172.164C583.006 176.049 585.199 181 585.199 187.016C585.199 192.907 583.006 197.795 578.619 201.68C574.233 205.565 568.467 207.508 561.323 207.508ZM582.003 215.968V322H540.267V215.968H582.003ZM703.501 268.044C703.501 270.927 703.313 273.684 702.937 276.316H635.821C636.448 285.465 640.27 290.04 647.289 290.04C651.801 290.04 655.06 287.972 657.065 283.836H701.245C699.741 291.356 696.545 298.124 691.657 304.14C686.894 310.031 680.816 314.731 673.421 318.24C666.152 321.624 658.13 323.316 649.357 323.316C638.829 323.316 629.429 321.123 621.157 316.736C613.01 312.349 606.618 306.083 601.981 297.936C597.469 289.664 595.213 280.013 595.213 268.984C595.213 257.955 597.469 248.367 601.981 240.22C606.618 231.948 613.01 225.619 621.157 221.232C629.429 216.845 638.829 214.652 649.357 214.652C659.885 214.652 669.222 216.845 677.369 221.232C685.641 225.493 692.033 231.635 696.545 239.656C701.182 247.677 703.501 257.14 703.501 268.044ZM661.201 258.08C661.201 254.571 660.073 251.939 657.817 250.184C655.561 248.304 652.741 247.364 649.357 247.364C641.962 247.364 637.638 250.936 636.385 258.08H661.201ZM790.961 215.216C803.118 215.216 812.581 219.289 819.349 227.436C826.242 235.583 829.689 246.612 829.689 260.524V322H788.141V265.788C788.141 260.775 786.762 256.827 784.005 253.944C781.373 250.936 777.801 249.432 773.289 249.432C768.651 249.432 765.017 250.936 762.385 253.944C759.753 256.827 758.437 260.775 758.437 265.788V322H716.701V215.968H758.437V232.136C761.695 227.123 766.019 223.049 771.409 219.916C776.923 216.783 783.441 215.216 790.961 215.216ZM913.775 286.468V322H897.983C868.905 322 854.367 307.524 854.367 278.572V250.748H841.207V215.968H854.367V190.4H896.103V215.968H913.399V250.748H896.103V279.324C896.103 281.831 896.667 283.648 897.795 284.776C899.048 285.904 901.053 286.468 903.811 286.468H913.775Z" fill="black"/>
</svg>
