<svg width="1030" height="512" viewBox="0 0 1030 512" fill="none" xmlns="http://www.w3.org/2000/svg">
<rect width="1030" height="512" fill="white"/>
<path d="M197 74L260 18V363L197 429V74Z" fill="#A559E1"/>
<path d="M61 132.226L124 75V427.555L61 495V132.226Z" fill="#A559E1"/>
<path d="M493.194 192.976V319H453.678V269.872H416.12V319H376.604V192.976H416.12V238.366H453.678V192.976H493.194ZM624.359 218.608L560.101 367.06H516.847L542.123 314.016L500.293 218.608H544.259L563.127 269.516L580.749 218.608H624.359ZM670.952 232.314C673.444 227.686 677.004 224.067 681.632 221.456C686.379 218.727 692.015 217.362 698.542 217.362C706.374 217.362 713.435 219.439 719.724 223.592C726.013 227.627 730.938 233.56 734.498 241.392C738.177 249.105 740.016 258.243 740.016 268.804C740.016 279.365 738.177 288.562 734.498 296.394C730.938 304.107 726.013 310.041 719.724 314.194C713.435 318.229 706.374 320.246 698.542 320.246C692.015 320.246 686.379 318.941 681.632 316.33C677.004 313.601 673.444 309.922 670.952 305.294V367.06H631.436V218.608H670.952V232.314ZM699.966 268.804C699.966 263.464 698.601 259.311 695.872 256.344C693.143 253.377 689.642 251.894 685.37 251.894C681.098 251.894 677.597 253.377 674.868 256.344C672.139 259.311 670.774 263.464 670.774 268.804C670.774 274.144 672.139 278.297 674.868 281.264C677.597 284.231 681.098 285.714 685.37 285.714C689.642 285.714 693.143 284.231 695.872 281.264C698.601 278.297 699.966 274.144 699.966 268.804ZM849.609 267.914C849.609 270.643 849.431 273.254 849.075 275.746H785.529C786.122 284.409 789.741 288.74 796.387 288.74C800.659 288.74 803.744 286.782 805.643 282.866H847.473C846.049 289.986 843.023 296.394 838.395 302.09C833.885 307.667 828.13 312.117 821.129 315.44C814.246 318.644 806.651 320.246 798.345 320.246C788.377 320.246 779.477 318.169 771.645 314.016C763.931 309.863 757.879 303.929 753.489 296.216C749.217 288.384 747.081 279.247 747.081 268.804C747.081 258.361 749.217 249.283 753.489 241.57C757.879 233.738 763.931 227.745 771.645 223.592C779.477 219.439 788.377 217.362 798.345 217.362C808.313 217.362 817.153 219.439 824.867 223.592C832.699 227.627 838.751 233.441 843.023 241.036C847.413 248.631 849.609 257.59 849.609 267.914ZM809.559 258.48C809.559 255.157 808.491 252.665 806.355 251.004C804.219 249.224 801.549 248.334 798.345 248.334C791.343 248.334 787.249 251.716 786.063 258.48H809.559ZM901.622 237.12C905.657 231.305 910.581 226.677 916.396 223.236C922.211 219.676 928.263 217.896 934.552 217.896V260.082H923.338C915.862 260.082 910.344 261.387 906.784 263.998C903.343 266.609 901.622 271.237 901.622 277.882V319H862.106V218.608H901.622V237.12Z" fill="black"/>
</svg>
